HIERARCHY
ROOT Hips
{
	OFFSET 0.000000 0.000000 0.000000
	CHANNELS 6 Xposition Yposition Zposition Zrotation Yrotation Xrotation 
	JOINT LowerBack
	{
		OFFSET 0.000000 0.000000 0.000000
		CHANNELS 3 Zrotation Yrotation Xrotation
		JOINT Spine
		{
			OFFSET 0.028270 2.035590 -0.193380
			CHANNELS 3 Zrotation Yrotation Xrotation
			JOINT Spine1
			{
				OFFSET 0.056720 2.048850 -0.042750
				CHANNELS 3 Zrotation Yrotation Xrotation
				JOINT Neck
				{
					OFFSET 0.000000 0.000000 0.000000
					CHANNELS 3 Zrotation Yrotation Xrotation
					JOINT Neck1
					{
						OFFSET -0.054170 1.746240 0.172020
						CHANNELS 3 Zrotation Yrotation Xrotation
						JOINT Head
						{
							OFFSET 0.104070 1.761360 -0.123970
							CHANNELS 3 Zrotation Yrotation Xrotation
							End Site
							{
								OFFSET 0.000000 0.000000 0.000000
							}
						}
					}
				}
				JOINT LeftShoulder
				{
					OFFSET 0.000000 0.000000 0.000000
					CHANNELS 3 Zrotation Yrotation Xrotation
					JOINT LeftArm
					{
						OFFSET 3.362410 1.200890 -0.311210
						CHANNELS 3 Zrotation Yrotation Xrotation
						JOINT LeftForeArm
						{
							OFFSET 4.983000 -0.000000 -0.000000
							CHANNELS 3 Zrotation Yrotation Xrotation
							JOINT LeftHand
							{
								OFFSET 3.483560 -0.000000 -0.000000
								CHANNELS 3 Zrotation Yrotation Xrotation
								JOINT LeftFingerBase
								{
									OFFSET 0.000000 0.000000 0.000000
									CHANNELS 3 Zrotation Yrotation Xrotation
									JOINT LeftHandIndex1
									{
										OFFSET 0.715260 -0.000000 -0.000000
										CHANNELS 3 Zrotation Yrotation Xrotation
										End Site
										{
											OFFSET 0.000000 0.000000 0.000000
										}
									}
								}
								JOINT LThumb
								{
									OFFSET 0.000000 0.000000 0.000000
									CHANNELS 3 Zrotation Yrotation Xrotation
									End Site
									{
										OFFSET 0.000000 0.000000 0.000000
									}
								}
							}
						}
					}
				}
				JOINT RightShoulder
				{
					OFFSET 0.000000 0.000000 0.000000
					CHANNELS 3 Zrotation Yrotation Xrotation
					JOINT RightArm
					{
						OFFSET -3.136600 1.374050 -0.404650
						CHANNELS 3 Zrotation Yrotation Xrotation
						JOINT RightForeArm
						{
							OFFSET -5.241900 -0.000000 -0.000000
							CHANNELS 3 Zrotation Yrotation Xrotation
							JOINT RightHand
							{
								OFFSET -3.444170 -0.000000 -0.000000
								CHANNELS 3 Zrotation Yrotation Xrotation
								JOINT RightFingerBase
								{
									OFFSET 0.000000 0.000000 0.000000
									CHANNELS 3 Zrotation Yrotation Xrotation
									JOINT RightHandIndex1
									{
										OFFSET -0.622530 -0.000000 -0.000000
										CHANNELS 3 Zrotation Yrotation Xrotation
										End Site
										{
											OFFSET 0.000000 0.000000 0.000000
										}
									}
								}
								JOINT RThumb
								{
									OFFSET 0.000000 0.000000 0.000000
									CHANNELS 3 Zrotation Yrotation Xrotation
									End Site
									{
										OFFSET 0.000000 0.000000 0.000000
									}
								}
							}
						}
					}
				}
			}
		}
	}
}
}
MOTION
Frames: 6
Frame Time: 0.008333
2.151878 16.006448 0.572830 125.898905 -79.107242 -80.686520 5.266858 0.507547 9.812722 0.970197 0.537947 -0.610153 -2.601493 0.479050 -0.634059 4.151451 -7.884197 -6.415454 -0.678843 -0.027249 -0.365351 0.000000 0.000000 0.000000 5.439660 11.211619 2.672047 -63.195130 21.633260 27.495283 -0.337500 -81.417432 0.030574 -10.918309 5.779021 -0.550660 0.135113 0.091727 -0.000000 0.000000 0.000000 0.000000 0.000000 0.000000 0.000000 -2.485977 -1.338971 -0.292825 61.145795 -2.602222 -0.215612 179.789703 80.697556 179.947937 -7.860586 1.175602 -0.110428 0.145985 -0.412482 0.000000 0.000000 0.000000 0.000000 0.000000 0.000000 0.000000 
2.021120 16.031071 0.553891 125.711306 -79.150732 -80.465125 4.962103 0.586532 9.784684 0.917358 0.623239 -0.623944 -2.522343 0.565752 -0.650619 3.978655 -7.763073 -6.436132 -0.645208 -0.024447 -0.369366 0.000000 0.000000 0.000000 5.382343 11.367699 2.676067 -62.946758 22.061086 27.712746 -0.316988 -81.891799 0.030950 -11.072260 5.539772 -0.534980 0.139216 0.093477 -0.000000 0.000000 0.000000 0.000000 0.000000 0.000000 0.000000 -2.773027 -1.149730 -0.274872 60.641666 -2.348632 -0.114635 179.786776 80.759516 179.947754 -7.886151 1.071496 -0.103426 0.148066 -0.410874 0.000000 0.000000 0.000000 0.000000 0.000000 0.000000 0.000000 
1.888116 16.053522 0.535617 125.601506 -79.202616 -80.350746 4.655681 0.661117 9.749783 0.863777 0.704185 -0.639923 -2.446523 0.648256 -0.663616 3.808784 -7.654014 -6.464420 -0.610253 -0.021462 -0.374634 0.000000 0.000000 0.000000 5.329138 11.537615 2.680958 -62.706757 22.509535 27.930470 -0.298034 -82.338757 0.031257 -11.232437 5.305110 -0.519302 0.143289 0.094916 -0.000000 0.000000 0.000000 0.000000 0.000000 0.000000 0.000000 -3.064294 -0.976021 -0.259300 60.159412 -2.088114 0.005809 179.784972 80.831439 179.947460 -7.926631 0.962660 -0.096122 0.150333 -0.409195 0.000000 0.000000 0.000000 0.000000 0.000000 0.000000 0.000000 
1.752741 16.073778 0.518004 125.564669 -79.262967 -80.336976 4.348522 0.731868 9.706356 0.809384 0.781385 -0.658555 -2.375065 0.727119 -0.673189 3.645233 -7.556857 -6.499229 -0.574610 -0.018361 -0.380818 0.000000 0.000000 0.000000 5.280808 11.719150 2.686550 -62.476098 22.978714 28.147357 -0.280925 -82.752072 0.031474 -11.394243 5.079058 -0.503925 0.147229 0.095967 -0.000000 0.000000 0.000000 0.000000 0.000000 0.000000 0.000000 -3.354134 -0.817642 -0.246201 59.697106 -1.823421 0.144620 179.783866 80.904424 179.947102 -7.975233 0.852527 -0.088818 0.152679 -0.407512 0.000000 0.000000 0.000000 0.000000 0.000000 0.000000 0.000000 
1.614811 16.091787 0.501022 125.592733 -79.331424 -80.414321 4.040740 0.799274 9.653592 0.754012 0.855392 -0.680020 -2.308656 0.802864 -0.679388 3.491101 -7.471846 -6.539798 -0.538561 -0.015177 -0.387708 0.000000 0.000000 0.000000 5.239118 11.911363 2.692725 -62.255443 23.466030 28.365021 -0.265951 -83.125727 0.031581 -11.550822 4.865946 -0.489048 0.150895 0.096561 -0.000000 0.000000 0.000000 0.000000 0.000000 0.000000 0.000000 -3.638661 -0.674703 -0.235731 59.254105 -1.557900 0.301079 179.783102 80.969577 179.946716 -8.026350 0.745410 -0.081614 0.155009 -0.405913 0.000000 0.000000 0.000000 0.000000 0.000000 0.000000 0.000000 
1.474354 16.107625 0.484658 125.672411 -79.407622 -80.572205 3.733096 0.863616 9.593344 0.697611 0.926588 -0.703996 -2.248124 0.875838 -0.682748 3.349714 -7.398707 -6.585163 -0.502634 -0.011964 -0.395068 0.000000 0.000000 0.000000 5.205517 12.111843 2.699355 -62.045671 23.969455 28.583980 -0.253340 -83.454540 0.031535 -11.694328 4.671187 -0.475072 0.154134 0.096613 -0.000000 0.000000 0.000000 0.000000 0.000000 0.000000 0.000000 -3.912857 -0.546784 -0.227886 58.828766 -1.294882 0.473100 179.782339 81.018010 179.946333 -8.075755 0.645232 -0.074811 0.157248 -0.404475 0.000000 0.000000 0.000000 0.000000 0.000000 0.000000 0.000000 
